<svg width="33" height="33" viewBox="0 0 33 33" fill="none" xmlns="http://www.w3.org/2000/svg">
<g clip-path="url(#clip0_32_269)">
<path d="M11.9852 25.5132C11.9852 25.5132 10.7167 26.2845 12.8669 26.5052C15.4553 26.8352 16.8341 26.7806 19.6989 26.2299C20.2747 26.5825 20.8836 26.8778 21.517 27.1116C15.0717 29.8671 6.91554 26.9466 11.9852 25.5132ZM11.1602 21.9316C11.1602 21.9316 9.78242 22.9783 11.9315 23.2001C14.7417 23.4754 16.9455 23.5301 20.7487 22.7597C21.1186 23.1348 21.5715 23.4178 22.0708 23.5857C14.3014 25.8999 5.59554 23.8054 11.1602 21.9316ZM26.368 28.2119C26.368 28.2119 27.3044 28.9833 25.3213 29.5897C21.6294 30.6931 9.8381 31.0231 6.53192 29.5897C5.37485 29.0947 7.57863 28.378 8.28504 28.2676C9.00176 28.1026 9.38848 28.1026 9.38848 28.1026C8.12004 27.2209 0.958009 29.9207 5.75229 30.6911C18.9214 32.8402 29.7763 29.7547 26.3598 28.2119H26.368ZM12.5812 18.1841C12.5812 18.1841 6.57523 19.6175 10.4321 20.1125C12.0852 20.3332 15.3357 20.2775 18.3665 20.0578C20.8457 19.8372 23.3269 19.3978 23.3269 19.3978C23.3269 19.3978 22.4451 19.7835 21.8388 20.1692C15.7234 21.7677 3.98576 21.0509 7.34763 19.3978C10.2124 18.0201 12.5823 18.1861 12.5823 18.1861L12.5812 18.1841ZM23.3269 24.1901C29.4979 20.9932 26.633 17.9097 24.6489 18.2944C24.1539 18.4047 23.9322 18.5151 23.9322 18.5151C23.9322 18.5151 24.0972 18.1851 24.4829 18.0747C28.3954 16.697 31.4809 22.207 23.2144 24.3551C23.2144 24.3551 23.2691 24.3004 23.3248 24.1901H23.3269ZM13.1897 32.8959C19.14 33.2816 28.2325 32.6752 28.4522 29.864C28.4522 29.864 28.0118 30.9674 23.5486 31.7924C18.4789 32.7288 12.1976 32.6174 8.50573 32.0131C8.50573 32.0131 9.2771 32.6742 13.1897 32.8959Z" fill="#22C9DF"/>
<path d="M19.5896 0.000976562C19.5896 0.000976562 23.0062 3.47216 16.3391 8.70679C10.9942 12.9494 15.1274 15.3738 16.3391 18.1293C13.1979 15.3192 10.9395 12.839 12.4823 10.5259C14.7407 7.10835 20.9674 5.46557 19.5896 0.000976562ZM17.8365 15.8152C19.4349 17.6333 17.3962 19.2864 17.3962 19.2864C17.3962 19.2864 21.4737 17.1929 19.5999 14.6024C17.8922 12.1233 16.5681 10.9106 23.7322 6.77835C23.7322 6.77835 12.4369 9.58851 17.8365 15.8152Z" fill="#22C9DF"/>
</g>
<defs>
<clipPath id="clip0_32_269">
<rect width="33" height="33" fill="white"/>
</clipPath>
</defs>
</svg>
