<svg width="27" height="32" viewBox="0 0 27 32" fill="none" xmlns="http://www.w3.org/2000/svg">
<g clip-path="url(#clip0_32_260)">
<path d="M8.76368 27.2558C7.22824 25.9343 6.77998 23.1577 7.41972 21.1461C8.52894 22.4144 10.0659 22.8162 11.6578 23.0429C14.1154 23.3929 16.529 23.262 18.8121 22.2044C19.0732 22.0833 19.3146 21.9223 19.6 21.7593C19.8142 22.3444 19.87 22.9351 19.7951 23.5364C19.6132 25.0006 18.8392 26.1317 17.6082 26.9891C17.116 27.3321 16.5951 27.6387 16.0867 27.962C14.5248 28.9559 14.1022 30.1213 14.6891 31.8164C14.7031 31.858 14.7156 31.8993 14.7471 32C13.9497 31.6639 13.3671 31.1746 12.9233 30.5313C12.4545 29.8525 12.2315 29.1015 12.2198 28.2889C12.2139 27.8935 12.2139 27.4945 12.1574 27.1046C12.0195 26.1541 11.5456 25.7285 10.6528 25.7041C9.73648 25.6789 9.01167 26.2122 8.81946 27.0521C8.80479 27.1165 8.7835 27.1802 8.76222 27.2551L8.76368 27.2558Z" fill="#22C9DF"/>
<path d="M0 20.8109C0 20.8109 4.54677 18.7256 9.10624 18.7256L12.5439 8.70891C12.6726 8.22451 13.0484 7.8953 13.4726 7.8953C13.8969 7.8953 14.2727 8.22451 14.4014 8.70891L17.8391 18.7256C23.2391 18.7256 26.9453 20.8109 26.9453 20.8109C26.9453 20.8109 19.2223 1.00257 19.2072 0.962823C18.9855 0.377181 18.6113 0 18.1068 0H8.83929C8.3348 0 7.9757 0.377181 7.73896 0.962823C7.72225 1.00182 0 20.8109 0 20.8109Z" fill="#22C9DF"/>
</g>
<defs>
<clipPath id="clip0_32_260">
<rect width="27" height="32" fill="white"/>
</clipPath>
</defs>
</svg>
