<svg width="38" height="37" viewBox="0 0 38 37" fill="none" xmlns="http://www.w3.org/2000/svg">
<path d="M23.719 26.8965C24.2171 27.3884 24.8927 27.665 25.5979 27.665H26.4431C27.5172 27.665 28.389 26.8043 28.389 25.7438V25.3596C28.389 24.7482 28.143 24.1618 27.7051 23.7294C27.2672 23.2971 26.6733 23.0542 26.054 23.0542C25.4347 23.0542 24.8408 22.8113 24.4029 22.3789C23.965 21.9466 23.719 21.3602 23.719 20.7488V20.3645C23.719 19.304 24.5907 18.4434 25.6648 18.4434H26.5101C27.2152 18.4434 27.8908 18.72 28.389 19.2118" stroke="#22C9DF" stroke-width="2" stroke-linecap="round" stroke-linejoin="round"/>
<path d="M14.3792 18.4434H20.6058" stroke="#22C9DF" stroke-width="2" stroke-linecap="round" stroke-linejoin="round"/>
<path d="M17.4924 18.4434V27.665" stroke="#22C9DF" stroke-width="2" stroke-linecap="round" stroke-linejoin="round"/>
<path d="M33.059 29.2019V7.68472C33.059 6.86948 32.731 6.08762 32.1472 5.51116C31.5633 4.93469 30.7714 4.61084 29.9457 4.61084H8.1525C7.3268 4.61084 6.53491 4.93469 5.95105 5.51116C5.36719 6.08762 5.03918 6.86948 5.03918 7.68472V29.2019C5.03918 30.0171 5.36719 30.799 5.95105 31.3755C6.53491 31.9519 7.3268 32.2758 8.1525 32.2758H29.9457C30.7714 32.2758 31.5633 31.9519 32.1472 31.3755C32.731 30.799 33.059 30.0171 33.059 29.2019Z" stroke="#22C9DF" stroke-width="2" stroke-linecap="round" stroke-linejoin="round"/>
</svg>
